<svg id="Page-1" xmlns="http://www.w3.org/2000/svg" width="94.393" height="94.393" viewBox="0 0 94.393 94.393">
  <g id="Core">
    <g id="account-circle">
      <path id="Shape" d="M47.2,0a47.2,47.2,0,1,0,47.2,47.2A47.335,47.335,0,0,0,47.2,0Zm0,14.159A13.906,13.906,0,0,1,61.355,28.318,13.906,13.906,0,0,1,47.2,42.477,13.906,13.906,0,0,1,33.038,28.318,13.906,13.906,0,0,1,47.2,14.159Zm0,67.019a34.432,34.432,0,0,1-28.318-15.1c0-9.439,18.879-14.631,28.318-14.631s28.318,5.192,28.318,14.631A34.432,34.432,0,0,1,47.2,81.178Z" fill="#003767" fill-rule="evenodd"/>
    </g>
  </g>
</svg>
