<svg id="camera" xmlns="http://www.w3.org/2000/svg" width="118.025" height="90.788" viewBox="0 0 118.025 90.788">
  <path id="Path_5" data-name="Path 5" d="M156.492,110.469H137.341L125.879,98.894s-.057-.057-.085-.057l-.057-.057h0a9.281,9.281,0,0,0-6.61-2.78H95.295a9.383,9.383,0,0,0-6.979,3.092v.028L77.109,110.469H57.533A9.421,9.421,0,0,0,48,119.889v57.338a9.541,9.541,0,0,0,9.533,9.561h98.959a9.559,9.559,0,0,0,9.533-9.561V119.889A9.439,9.439,0,0,0,156.492,110.469Zm-49.48,61.991a26.272,26.272,0,1,1,26.215-26.272A26.293,26.293,0,0,1,107.012,172.461ZM154.7,125.648a4,4,0,1,1,3.972-4A3.99,3.99,0,0,1,154.7,125.648Z" transform="translate(-48 -96)" fill="#003767"/>
  <path id="Path_6" data-name="Path 6" d="M206,202.9a19.86,19.86,0,1,0,19.8,19.86A19.815,19.815,0,0,0,206,202.9Z" transform="translate(-146.991 -172.571)" fill="#003767"/>
</svg>
