<svg xmlns="http://www.w3.org/2000/svg" width="112" height="112" viewBox="0 0 112 112">
  <path id="iconfinder_Couch_728993" d="M104,56a15.833,15.833,0,0,0-8,2.219V16a8,8,0,0,0-8-8H40a8,8,0,0,0-8,8V58.219A15.833,15.833,0,0,0,24,56a15.952,15.952,0,0,0-8,29.781V108a11.988,11.988,0,0,0,18.734,9.922A7.893,7.893,0,0,0,40,120H88a7.893,7.893,0,0,0,5.266-2.078A11.988,11.988,0,0,0,112,108V85.781A15.952,15.952,0,0,0,104,56ZM32,108a4,4,0,0,1-8,0V88a15.833,15.833,0,0,0,8-2.219ZM24,80a8,8,0,1,1,8-8A8.008,8.008,0,0,1,24,80Zm64,32H40V93.773A15.771,15.771,0,0,0,48,96H80a15.771,15.771,0,0,0,8-2.227ZM80,88H48a8,8,0,0,1,0-16H80a8,8,0,0,1,0,16Zm8-21.773A15.771,15.771,0,0,0,80,64H48a15.771,15.771,0,0,0-8,2.227V16H88ZM104,108a4,4,0,0,1-8,0V85.781A15.833,15.833,0,0,0,104,88Zm0-28a8,8,0,1,1,8-8A8.008,8.008,0,0,1,104,80Z" transform="translate(-8 -8)" fill="#003767"/>
</svg>
