<svg id="Page-1" xmlns="http://www.w3.org/2000/svg" width="92.993" height="94.393" viewBox="0 0 92.993 94.393">
  <g id="Core" transform="translate(0)">
    <g id="settings" transform="translate(0)">
      <path id="Shape" d="M81.558,52.177c0-1.423.474-2.846.474-4.743a14.623,14.623,0,0,0-.474-4.743l9.961-8.064a2.235,2.235,0,0,0,.474-2.846l-9.487-16.6a2.658,2.658,0,0,0-2.846-.474L67.8,19.448A45.043,45.043,0,0,0,59.739,14.7l-1.9-12.333A1.91,1.91,0,0,0,55.944,0H36.971C36.022,0,34.6.949,34.6,1.9L32.7,14.7c-2.846.949-5.218,2.846-8.064,4.743L13.254,14.7a2.933,2.933,0,0,0-3.32.949L.447,32.255c-.474.474,0,1.9.949,2.846l9.961,7.589c0,1.423-.474,2.846-.474,4.743a14.623,14.623,0,0,0,.474,4.743L1.4,60.241a2.235,2.235,0,0,0-.474,2.846l9.487,16.6a2.658,2.658,0,0,0,2.846.474L25.112,75.42a45.042,45.042,0,0,0,8.064,4.743l1.9,12.333a2.17,2.17,0,0,0,2.372,1.9H56.419c.949,0,2.372-.949,2.372-1.9l1.9-12.333a45.042,45.042,0,0,0,8.064-4.743L80.61,80.163a2.281,2.281,0,0,0,2.846-.949l9.487-16.6c.474-.949.474-2.372-.474-2.846l-10.91-7.589Zm-35.1,11.858a16.6,16.6,0,1,1,16.6-16.6,16.806,16.806,0,0,1-16.6,16.6Z" transform="translate(-0.261)" fill="#003767" fill-rule="evenodd"/>
    </g>
  </g>
</svg>
